<svg width="100%" viewBox="0 0 690 330" role="img" xmlns="http://www.w3.org/2000/svg">
  <title>CineMax Nidin Logo</title>
  <desc>CineMax cinema logo branded for Nidin, black background with gold accents</desc>

  <rect x="0" y="0" width="680" height="320" fill="#0f0f0f" rx="16"/>

  <rect x="40" y="30" width="600" height="260" fill="#0f0f0f" rx="12"/>

  <rect x="40" y="288" width="600" height="3" fill="#facc15" rx="2"/>
  <rect x="40" y="29" width="600" height="3" fill="#facc15" rx="2"/>

  <polygon points="100,80 100,240 130,240 200,140 200,240 230,240 230,80 200,80 130,180 130,80" fill="#facc15"/>

  <rect x="255" y="80" width="8" height="160" fill="#facc15"/>
  <rect x="255" y="80" width="60" height="8" fill="#facc15"/>
  <rect x="255" y="156" width="50" height="8" fill="#facc15"/>
  <rect x="255" y="232" width="60" height="8" fill="#facc15"/>

  <polygon points="340,80 340,240 370,240 440,140 440,240 470,240 470,80 440,80 370,180 370,80" fill="white"/>

  <rect x="495" y="80" width="8" height="160" fill="white"/>
  <text x="504" y="175" font-family="Arial, sans-serif" font-size="80" font-weight="900" fill="white" dominant-baseline="middle">N</text>

  <line x1="40" y1="265" x2="640" y2="265" stroke="#333" stroke-width="0.5"/>

  <text x="340" y="282" font-family="Arial, sans-serif" font-size="13" font-weight="400" fill="#facc15" text-anchor="middle" letter-spacing="6">NIDIN CINEMAS</text>

  <circle cx="90" cy="275" r="3" fill="#facc15" opacity="0.6"/>
  <circle cx="590" cy="275" r="3" fill="#facc15" opacity="0.6"/>
</svg>
